<?xml version="1.0" encoding="iso-8859-1"?>
<svg version="1.1" id="Capa_1" xmlns="http://www.w3.org/2000/svg" xmlns:xlink="http://www.w3.org/1999/xlink" x="0px" y="0px" viewBox="0 0 512.002 512.002" style="enable-background:new 0 0 512.002 512.002; fill:#ffffff" xml:space="preserve">
	<g>
		<g>
			<path d="M457.085,315.572c-2.958-2.898-7.706-2.854-10.607,0.104l-54.687,55.773l-18.896-19.771
			c-2.862-2.995-7.61-3.103-10.605-0.24c-2.994,2.863-3.102,7.609-0.24,10.605l24.249,25.372c2.926,3.063,7.809,3.095,10.778,0.069
			l60.111-61.305C460.089,323.221,460.042,318.473,457.085,315.572z" />
		</g>
	</g>
	<g>
		<g>
			<path d="M491.002,252.103c-18.702,10.566-36.334,10.923-52.407,1.064c-12.804-7.854-19.979-19.354-20.263-19.814
			c-1.14-1.868-2.7-3.414-4.511-4.555v-27.802c0-4.143-3.358-7.5-7.5-7.5c-4.142,0-7.5,3.357-7.5,7.5v27.793
			c-3.432,2.162-3.973,4.13-7.016,8.056c-11.794,15.219-28.952,25.894-48.477,23.101c-6.978-0.998-14.189-3.609-21.692-7.848
			c-9.371-5.286-20.994,1.515-20.994,12.258v77.643V342c0,25.675,7.04,51.704,21.613,74.712L214.41,464.29V214.725l184.408-81.361
			v32.631c0,4.142,3.358,7.5,7.5,7.5c4.142,0,7.5-3.358,7.5-7.5v-44.139c0-0.004-0.001-0.007-0.001-0.011
			c0-3.041-1.859-5.714-4.508-6.868c-10.216-4.442-184.765-80.351-194.709-84.675c-4.888-2.125-10.496-2.125-15.385,0L4.509,114.979
			c-2.704,1.175-4.503,3.908-4.509,6.858c0,0.003,0.001,0.006,0.001,0.009c0,0.004-0.001,0.007-0.001,0.011v259.817
			c0,6.704,3.963,12.785,10.097,15.49l193.786,85.497c1.974,0.872,4.209,0.815,6.055,0.001l121.204-53.474
			c14.55,18.22,33.306,32.362,54.826,41.203c3.846,1.578,8.22-0.268,9.789-4.088c1.574-3.831-0.256-8.214-4.087-9.788
			c-47.378-19.463-76.021-65.595-76.028-114.497c0-0.006,0-0.012,0-0.018v-76.07c4.131,2.245,8.254,4.078,12.359,5.518
			c20.086,7.049,39.562,4.442,57.008-7.613c8.417-5.814,16.118-13.714,21.31-21.439c2.581,3.863,10.928,15.275,24.433,23.559
			c14.26,8.746,37.245,15.738,66.247-0.024v76.07c0,50.59-29.843,95.54-76.028,114.515c-3.832,1.574-5.661,5.956-4.087,9.789
			c1.574,3.83,5.957,5.661,9.789,4.087c25.019-10.279,46.316-27.706,61.593-50.397c15.528-23.064,23.735-50.035,23.735-77.994
			v-77.644C512,253.592,500.354,246.819,491.002,252.103z M288.958,78.998l16.155,7.025l-167.387,85.09
			c-30.105-13.282-25.756-11.363-39.229-17.308L265.62,68.848L288.958,78.998z M130.453,184.301v77.011l-41.951-18.509v-77.01
			L130.453,184.301z M205.199,44.06c1.086-0.473,2.333-0.473,3.421,0l39.159,17.03L80.775,145.987
			c-14.48-6.388-52.108-22.989-54.58-24.08L205.199,44.06z M199.409,464.293L16.152,383.44c-0.699-0.308-1.151-1.001-1.151-1.766
			v-248.31l58.501,25.811v83.959c0,5.739,3.393,10.945,8.643,13.262l46.882,20.684c7.728,3.409,16.427-2.255,16.427-10.709V190.92
			l53.955,23.805V464.293z M206.911,201.637l-51.462-22.704l167.505-85.151l64.673,28.125L206.911,201.637z" />
		</g>
	</g>
	<g></g>
	<g></g>
	<g></g>
	<g></g>
	<g></g>
	<g></g>
	<g></g>
	<g></g>
	<g></g>
	<g></g>
	<g></g>
	<g></g>
	<g></g>
	<g></g>
	<g></g>
</svg>
