<svg id="Icons" enable-background="new 0 0 128 128" height="512" viewBox="0 0 128 128" width="512" xmlns="http://www.w3.org/2000/svg"><path style="fill:#bf1100" id="Location" d="m64 125c-.697 0-1.393-.182-2.016-.545-2.041-1.191-49.984-29.594-49.984-67.455 0-28.674 23.326-52 52-52s52 23.326 52 52c0 37.861-47.943 66.264-49.984 67.455-.623.363-1.319.545-2.016.545zm0-112c-24.262 0-44 19.738-44 44 0 29.201 35.119 53.592 44 59.291 8.881-5.699 44-30.09 44-59.291 0-24.262-19.738-44-44-44zm0 68c-13.234 0-24-10.766-24-24s10.766-24 24-24 24 10.766 24 24-10.766 24-24 24zm0-40c-8.822 0-16 7.178-16 16s7.178 16 16 16 16-7.178 16-16-7.178-16-16-16z"/></svg>