<svg style="fill:#bf1100" id="Capa_1" enable-background="new 0 0 512 512" height="512" viewBox="0 0 512 512" width="512" xmlns="http://www.w3.org/2000/svg">
    <g>
        <g>
            <path d="m437.019 74.98c-48.352-48.351-112.639-74.98-181.019-74.98s-132.667 26.629-181.019 74.98c-48.353 48.353-74.981 112.64-74.981 181.02 0 67.149 25.808 130.606 72.672 178.681 2.89 2.965 7.639 3.027 10.605.135 2.966-2.891 3.026-7.639.135-10.605-44.116-45.258-68.413-104.996-68.413-168.211 0-64.374 25.069-124.894 70.588-170.414 45.519-45.519 106.04-70.587 170.413-70.587s124.894 25.068 170.413 70.587 70.588 106.04 70.588 170.414-25.069 124.894-70.588 170.414c-45.519 45.519-106.04 70.587-170.413 70.587-53.921 0-104.898-17.405-147.421-50.333-3.275-2.536-7.986-1.938-10.521 1.338-2.536 3.275-1.937 7.985 1.338 10.521 45.175 34.982 99.328 53.473 156.604 53.473 68.38 0 132.667-26.629 181.019-74.98 48.353-48.353 74.981-112.64 74.981-181.02s-26.628-132.667-74.981-181.02z" />
            <path d="m80.289 256c0 96.887 78.824 175.711 175.711 175.711s175.711-78.824 175.711-175.711c0-27.547-6.392-53.622-17.741-76.851l4.936-5.622c14.612-16.613 12.986-42.018-3.628-56.632-15.156-13.331-37.627-13.138-52.552-.382-29.607-22.708-66.616-36.224-106.726-36.224-96.887 0-175.711 78.824-175.711 175.711zm175.711-160.711c36.174 0 69.585 12.025 96.472 32.272l-40.054 45.642c-2.732 3.113-2.424 7.851.689 10.583 3.115 2.732 7.852 2.423 10.583-.69l46.219-52.666c9.15-10.404 25.059-11.421 35.462-2.272 10.403 9.151 11.421 25.059 2.266 35.468l-145.449 165.677c-4.768 5.422-11.645 8.531-18.865 8.531h-.162c-7.282-.046-14.177-3.244-18.917-8.774l-65.35-76.242c-4.368-5.095-6.489-11.587-5.974-18.279s3.604-12.783 8.702-17.151c5.094-4.367 11.582-6.492 18.277-5.974 6.692.515 12.783 3.605 17.151 8.701l40.896 47.713c1.415 1.651 3.477 2.606 5.65 2.619 2.217-.004 4.247-.918 5.68-2.553l51.393-58.563c2.732-3.113 2.424-7.851-.689-10.583-3.114-2.732-7.851-2.423-10.583.69l-45.69 52.063-35.269-41.148c-6.975-8.137-16.702-13.072-27.388-13.894-10.685-.821-21.055 2.566-29.191 9.542-8.138 6.975-13.072 16.702-13.895 27.388-.822 10.687 2.566 21.053 9.542 29.191l65.35 76.242c7.569 8.83 18.58 13.937 30.205 14.012h.262c11.531 0 22.512-4.966 30.132-13.629l129.716-147.755c8.704 19.766 13.54 41.604 13.54 64.551 0 88.616-72.094 160.711-160.711 160.711s-160.711-72.096-160.711-160.712 72.094-160.711 160.711-160.711z" />
            <circle cx="256" cy="50.514" r="7.5" />
            <circle cx="256" cy="461.486" r="7.5" />
            <path d="m157.007 84.538c3.587-2.071 4.816-6.657 2.745-10.245-2.071-3.587-6.657-4.816-10.244-2.745s-4.816 6.657-2.745 10.245c2.07 3.587 6.657 4.816 10.244 2.745z" />
            <path d="m354.993 427.462c-3.587 2.071-4.816 6.657-2.745 10.245 2.071 3.587 6.657 4.816 10.244 2.745s4.816-6.657 2.745-10.245c-2.07-3.587-6.657-4.816-10.244-2.745z" />
            <path d="m81.793 146.762c-3.587-2.071-8.174-.842-10.245 2.745s-.842 8.174 2.745 10.244c3.587 2.071 8.174.842 10.245-2.745s.842-8.173-2.745-10.244z" />
            <path d="m430.207 365.238c3.587 2.071 8.174.842 10.245-2.745s.842-8.174-2.745-10.244c-3.587-2.071-8.174-.842-10.245 2.745s-.842 8.173 2.745 10.244z" />
            <path d="m43.014 256c0 4.142 3.358 7.5 7.5 7.5s7.5-3.358 7.5-7.5-3.358-7.5-7.5-7.5-7.5 3.358-7.5 7.5z" />
            <circle cx="461.486" cy="256" r="7.5" />
            <path d="m71.549 362.493c2.071 3.587 6.658 4.816 10.245 2.745s4.816-6.658 2.745-10.245-6.658-4.816-10.245-2.745-4.816 6.658-2.745 10.245z" />
            <path d="m146.762 430.207c-2.071 3.587-.842 8.174 2.745 10.245s8.174.842 10.244-2.745c2.071-3.587.842-8.174-2.745-10.245s-8.173-.842-10.244 2.745z" />
            <path d="m365.238 81.793c2.071-3.587.842-8.174-2.745-10.245s-8.174-.842-10.244 2.745c-2.071 3.587-.842 8.174 2.745 10.245s8.173.842 10.244-2.745z" />
        </g>
    </g>
</svg>