<svg style="fill:#ffffff" id="Capa_1" enable-background="new 0 0 512.004 512.004" height="512" viewBox="0 0 512.004 512.004" width="512" xmlns="http://www.w3.org/2000/svg">
    <g>
        <g>
            <path d="m511.127 203.678c-.748-1.668-18.78-41.306-59.143-79.937-36.996-35.406-101.028-77.611-195.982-77.611s-158.987 42.205-195.983 77.611c-40.381 38.647-58.396 78.271-59.144 79.939-2.11 4.709-.29 10.251 4.202 12.792l38.224 21.624v217.777c0 5.522 4.478 10 10 10h404.579c5.522 0 10-4.478 10-10v-217.78l38.966-21.577c4.546-2.516 6.407-8.096 4.281-12.838zm-338.376 163.278h166.498v30.229h-166.498zm-21.78-70.229v-25.939h210.059v25.939zm188.278 20v30.229h-166.498v-30.229zm-166.498 129.147v-28.689h166.498v28.689zm289.807-227.694c-30.781-62.77-92.624-106.65-161.164-118.762-5.438-.957-10.627 2.669-11.588 8.107-.93 5.264 2.667 10.627 8.107 11.588 64.217 11.349 124.15 54.245 149.967 115.053v211.708h-88.632v-129.147h11.78c5.522 0 10-4.478 10-10v-45.939c0-5.522-4.478-10-10-10h-230.057c-5.522 0-10 4.478-10 10v45.939c0 5.522 4.478 10 10 10h11.78v129.146h-89.449v-211.54c26.802-60.55 85.876-103.663 150.498-115.172 5.438-.968 9.061-6.161 8.092-11.598-.847-4.759-4.954-8.731-9.58-8.244-69.478 7.319-134.174 59.493-163.496 118.917l-25.595-14.479c6.992-12.906 23.171-39.29 50.627-65.567 34.351-32.874 93.836-72.061 182.154-72.061s147.804 39.187 182.154 72.061c27.391 26.216 43.565 52.554 50.584 65.491z" />
            <path d="m265.231 101.712c-3.43-8.241-15.627-7.991-18.646.461-3.046 8.528 6.442 16.519 14.341 12.06 4.353-2.458 6.197-7.911 4.305-12.521z" />
        </g>
    </g>
</svg>